<?xml version="1.0" standalone="no"?>
<!DOCTYPE svg PUBLIC "-//W3C//DTD SVG 20010904//EN"
 "http://www.w3.org/TR/2001/REC-SVG-20010904/DTD/svg10.dtd">
<svg version="1.0" xmlns="http://www.w3.org/2000/svg"
 width="570.000000pt" height="544.000000pt" viewBox="0 0 570.000000 544.000000"
 preserveAspectRatio="xMidYMid meet">

<g transform="translate(0.000000,544.000000) scale(0.100000,-0.100000)"
fill="#000000" stroke="none">
<path d="M975 5407 c-27 -14 -69 -33 -92 -42 -23 -10 -52 -33 -66 -51 -24 -35
-199 -171 -319 -249 -79 -52 -92 -70 -111 -151 -17 -74 -14 -68 -143 -269
-174 -274 -230 -405 -241 -566 -6 -94 5 -158 43 -251 20 -47 23 -67 18 -117
-6 -49 -3 -67 15 -105 26 -54 85 -100 156 -123 46 -14 56 -24 115 -106 90
-125 255 -290 363 -361 54 -36 122 -71 175 -89 80 -27 94 -29 182 -24 52 4
129 15 170 26 41 12 80 21 86 21 6 0 17 -19 24 -42 7 -24 26 -70 42 -103 93
-185 238 -317 433 -392 38 -15 77 -37 85 -48 32 -45 126 -137 166 -162 28 -18
40 -32 37 -42 -11 -35 -30 -69 -71 -128 -23 -34 -49 -81 -58 -105 -11 -34 -28
-53 -77 -88 -223 -162 -330 -298 -454 -573 -63 -140 -136 -351 -157 -452 -35
-169 -30 -403 16 -645 18 -96 25 -119 49 -142 l27 -28 464 0 464 0 69 34 c144
70 297 200 363 309 18 30 48 96 66 147 l33 92 31 -89 c18 -48 45 -111 62 -140
64 -112 205 -235 355 -313 l79 -40 463 0 463 0 30 28 c25 23 32 42 49 127 57
288 55 545 -5 753 -61 210 -192 502 -285 637 -59 86 -191 215 -297 290 -55 39
-72 58 -81 87 -6 21 -32 68 -57 105 -54 80 -74 117 -74 136 0 7 27 32 60 56
33 23 83 70 110 105 43 55 58 66 112 86 202 72 387 252 463 451 16 41 32 78
35 82 4 4 40 -2 81 -13 41 -12 118 -24 171 -27 86 -5 106 -3 180 20 129 41
234 111 374 251 66 67 148 159 181 206 55 75 68 87 112 103 64 22 129 72 152
117 14 25 19 56 19 109 0 58 6 89 27 140 21 54 27 87 31 176 8 198 -30 290
-274 675 -67 107 -95 160 -104 202 -17 74 -40 111 -91 145 -127 86 -318 235
-347 271 -23 29 -45 45 -75 53 -23 7 -55 22 -72 33 -24 17 -45 21 -111 21 -79
0 -82 -1 -136 -42 -30 -23 -89 -75 -131 -115 -61 -59 -77 -81 -82 -113 -4 -22
-14 -47 -22 -57 -21 -23 -43 -104 -43 -155 0 -84 46 -134 166 -178 47 -18 83
-40 114 -70 55 -54 124 -85 201 -92 l59 -6 -24 -41 c-13 -23 -32 -67 -42 -99
-14 -44 -21 -56 -33 -52 -157 61 -349 -2 -441 -143 l-31 -48 -67 22 c-170 57
-326 32 -495 -80 l-52 -35 -60 20 c-33 11 -96 25 -139 32 -106 17 -111 28 -65
170 39 121 42 174 13 214 -12 15 -23 52 -27 81 -23 198 -188 322 -427 322
-145 0 -259 -41 -337 -122 -55 -57 -82 -113 -97 -195 -6 -38 -20 -80 -30 -95
-26 -39 -23 -81 14 -196 24 -73 31 -110 26 -135 -6 -34 -8 -35 -67 -41 -34 -4
-97 -18 -142 -31 l-81 -23 -41 28 c-165 113 -341 144 -502 89 l-72 -25 -20 37
c-26 45 -97 111 -149 138 -62 32 -162 46 -230 34 -31 -6 -63 -13 -70 -15 -9
-2 -22 20 -36 58 -12 34 -32 77 -43 96 l-21 35 64 6 c82 8 136 32 200 90 32
29 80 58 125 77 83 34 135 79 149 130 12 45 -11 159 -40 199 -11 16 -20 36
-20 46 0 33 -31 74 -110 148 -125 115 -151 131 -229 135 -54 3 -75 -1 -116
-21z m191 -17 c23 -11 87 -64 143 -118 87 -83 101 -101 101 -129 0 -17 5 -35
11 -39 16 -9 38 -67 49 -125 17 -91 -27 -150 -145 -194 -46 -18 -86 -42 -118
-71 -60 -57 -123 -85 -205 -92 -39 -3 -66 -10 -69 -18 -2 -7 7 -30 22 -51 14
-21 35 -68 46 -105 12 -38 22 -68 24 -68 2 0 32 7 67 16 71 18 145 14 220 -12
57 -19 139 -90 174 -150 14 -24 29 -44 34 -44 4 0 27 9 52 20 150 66 329 43
492 -65 l68 -44 84 24 c47 14 114 28 150 31 57 6 67 10 75 31 15 40 11 75 -22
173 -36 109 -39 153 -11 183 12 14 22 44 26 82 4 33 18 83 32 112 33 68 118
145 192 174 69 26 232 37 310 20 160 -34 274 -152 289 -297 4 -36 15 -71 30
-92 12 -19 23 -43 23 -53 0 -21 -35 -139 -56 -187 -17 -39 -18 -68 -4 -108 10
-28 14 -30 98 -42 48 -6 115 -21 149 -33 l62 -21 43 30 c124 85 264 129 373
117 33 -3 93 -17 134 -31 40 -14 74 -23 76 -22 1 2 13 24 28 49 74 129 236
194 387 155 35 -9 66 -13 70 -9 4 5 12 28 19 53 7 25 26 69 42 97 41 74 39 83
-19 83 -82 0 -149 26 -206 80 -36 34 -78 60 -135 84 -116 49 -151 86 -151 159
0 45 26 132 45 147 8 7 15 24 15 39 0 14 9 40 19 58 25 40 196 191 238 209 49
21 119 17 177 -10 28 -14 66 -30 84 -37 18 -6 46 -29 64 -51 31 -40 215 -184
319 -250 73 -47 94 -75 108 -147 8 -42 28 -85 68 -147 203 -320 255 -417 294
-546 31 -101 24 -265 -15 -358 -23 -53 -28 -79 -27 -140 1 -59 -3 -82 -18
-107 -27 -43 -89 -87 -145 -103 -40 -11 -52 -22 -107 -98 -73 -100 -231 -267
-311 -328 -75 -58 -189 -118 -263 -140 -79 -22 -219 -15 -333 19 -75 22 -84
23 -89 8 -62 -172 -105 -244 -213 -352 -81 -81 -109 -102 -190 -142 -52 -25
-108 -49 -123 -53 -18 -4 -44 -27 -72 -65 -48 -61 -110 -116 -161 -142 -47
-24 -37 -57 63 -205 23 -35 45 -76 48 -93 5 -22 28 -45 88 -91 128 -96 274
-249 331 -348 94 -160 203 -424 251 -606 47 -177 45 -461 -5 -705 -13 -62 -26
-99 -41 -115 l-22 -24 -456 0 -456 0 -63 30 c-159 75 -325 225 -382 346 -17
35 -43 102 -58 149 -15 47 -31 84 -35 82 -4 -1 -21 -43 -38 -92 -17 -49 -46
-119 -65 -155 -61 -116 -202 -243 -356 -321 l-78 -39 -455 0 -456 0 -23 23
c-44 45 -79 269 -79 512 0 154 3 194 23 275 52 217 176 511 287 685 54 84 176
207 292 294 73 54 88 70 107 117 12 30 40 78 62 108 32 42 72 126 72 151 0 3
-14 12 -32 21 -40 21 -132 106 -170 158 -23 32 -43 45 -111 71 -206 77 -364
237 -451 457 -14 36 -26 72 -26 78 0 6 -8 9 -17 6 -168 -53 -317 -68 -409 -41
-179 51 -361 199 -553 449 -66 84 -87 105 -118 114 -21 6 -60 25 -86 42 -64
40 -88 93 -85 187 1 55 -4 81 -27 138 -27 64 -29 80 -29 185 1 98 5 127 28
195 35 102 92 208 224 415 83 129 109 180 123 233 22 85 36 107 94 143 103 65
309 226 336 263 22 30 43 44 82 57 29 9 59 22 67 29 38 31 126 34 186 5z"/>
<path d="M1006 5321 c-16 -11 -43 -22 -61 -25 -22 -4 -45 -22 -72 -54 -22 -26
-100 -90 -173 -142 -72 -52 -150 -109 -173 -125 -37 -27 -44 -39 -58 -98 -13
-51 -36 -98 -95 -190 -234 -368 -279 -471 -279 -647 0 -96 3 -111 32 -180 30
-67 32 -81 27 -140 -5 -57 -4 -68 16 -93 25 -32 81 -62 130 -72 27 -5 43 -18
70 -58 111 -162 303 -358 417 -426 167 -99 283 -105 528 -27 43 14 80 24 80
23 1 -1 10 -33 20 -72 64 -243 250 -442 482 -514 44 -14 58 -26 97 -78 55 -75
131 -137 197 -160 33 -12 48 -22 44 -31 -3 -8 -5 -19 -6 -25 -1 -7 -5 -1 -9
13 -7 23 -8 23 -9 -9 -1 -21 5 -39 17 -47 15 -13 15 -13 0 -8 -12 4 -22 -6
-38 -38 -12 -24 -39 -66 -60 -93 -48 -65 -70 -108 -70 -138 0 -18 -23 -41
-105 -102 -136 -101 -257 -228 -319 -333 -98 -167 -210 -446 -252 -627 -35
-148 -21 -499 27 -677 l10 -38 442 0 442 0 74 40 c138 76 258 185 306 280 35
70 83 211 124 369 l37 143 29 -108 c40 -158 93 -321 122 -379 59 -118 159
-215 311 -301 l77 -44 446 0 446 0 16 83 c40 201 49 461 23 599 -46 238 -212
617 -340 777 -52 64 -179 177 -279 247 -44 31 -57 46 -62 74 -8 40 -34 86 -81
145 -17 23 -39 61 -47 85 -8 25 -17 45 -18 44 -2 0 -15 -6 -29 -13 -24 -11
-24 -11 -6 3 11 9 22 16 25 16 4 0 5 19 3 43 -3 41 -3 42 42 60 55 23 122 80
180 156 40 51 51 58 124 84 220 77 369 239 447 488 l27 86 106 -35 c98 -33
117 -36 227 -37 115 0 123 1 188 32 151 71 312 216 457 412 77 104 84 110 130
121 29 7 65 26 90 47 l41 35 -1 77 c-1 61 4 88 25 138 44 106 50 251 15 359
-24 73 -102 218 -210 389 -127 202 -133 213 -149 286 -10 50 -17 60 -54 85
-134 90 -327 238 -354 272 -23 29 -44 42 -76 50 -24 7 -50 18 -57 27 -8 10
-30 15 -64 15 -58 0 -80 -14 -203 -134 -58 -56 -63 -64 -63 -104 0 -35 -4 -45
-19 -49 -23 -6 -41 -51 -41 -104 0 -47 32 -76 121 -108 45 -17 82 -40 122 -77
32 -30 63 -54 69 -54 7 0 3 7 -8 15 -18 14 -17 15 8 4 15 -7 25 -16 22 -20 -3
-5 10 -6 28 -4 26 4 29 3 13 -4 -14 -7 4 -10 67 -10 l86 -1 10 -56 c9 -54 8
-59 -19 -98 -38 -54 -67 -138 -75 -220 l-7 -67 -21 19 c-67 62 -184 86 -282
57 -80 -23 -152 -94 -184 -182 l-22 -62 -47 29 c-172 105 -364 87 -548 -51
l-53 -39 -37 15 c-64 27 -195 55 -259 55 l-60 0 -18 56 c-10 31 -20 54 -22 51
-2 -2 3 -23 11 -47 8 -24 13 -45 10 -48 -5 -5 -7 -1 -34 83 -10 33 -21 69 -25
80 -3 11 3 2 14 -20 l19 -40 1 45 c0 26 6 52 13 59 10 11 9 13 -3 7 -12 -6
-12 -5 1 6 9 7 18 26 21 41 5 27 5 27 -15 10 -20 -17 -20 -17 -13 2 13 33 24
68 30 98 7 32 23 36 29 7 4 -17 4 -16 3 2 -1 17 -7 23 -23 22 -22 -1 -23 3
-23 75 0 125 -56 213 -165 262 -38 18 -74 24 -152 27 -174 7 -291 -45 -343
-153 -31 -64 -45 -236 -25 -303 18 -58 18 -57 0 -42 -13 10 -15 9 -15 -9 0
-11 5 -21 11 -21 5 0 7 -4 4 -10 -3 -5 -1 -10 4 -10 18 0 12 -102 -9 -167
l-21 -60 -87 -5 c-60 -4 -116 -15 -180 -37 l-92 -31 -52 39 c-122 93 -262 135
-380 113 -35 -6 -97 -29 -139 -50 l-76 -39 -17 52 c-58 186 -272 261 -441 154
-25 -16 -48 -29 -50 -29 -3 0 -5 19 -5 43 0 75 -44 200 -87 249 -12 13 -14 30
-8 77 l7 61 86 1 c63 0 81 3 67 10 -16 7 -13 8 13 4 42 -6 63 5 127 65 32 30
72 55 110 69 129 47 142 63 125 147 -9 41 -17 58 -31 61 -14 4 -19 14 -19 40
0 49 -20 81 -91 143 -120 105 -128 110 -178 110 -28 0 -57 -7 -75 -19z m134
-23 c11 -12 20 -27 20 -32 0 -6 4 -5 9 3 7 10 26 -3 80 -56 65 -64 71 -74 71
-111 0 -42 -10 -52 -56 -52 -21 0 -23 3 -14 26 6 14 10 33 10 42 0 14 -4 12
-18 -6 l-18 -24 -12 39 c-6 21 -18 47 -26 58 -13 18 -14 15 -9 -27 3 -26 3
-58 -1 -72 -6 -23 -9 -24 -34 -15 l-27 10 30 -26 c29 -25 34 -26 117 -21 99 6
111 0 122 -59 8 -40 -1 -65 -15 -44 -5 8 -9 22 -9 31 0 22 -19 72 -25 66 -2
-2 -1 -28 4 -56 9 -59 2 -75 -42 -92 -49 -18 -55 -14 -50 33 4 31 1 48 -10 59
-9 9 -14 18 -12 20 3 3 -2 5 -10 5 -10 0 -14 -6 -10 -16 32 -82 6 -151 -55
-151 -33 0 -49 -17 -23 -22 14 -3 10 -9 -17 -26 -25 -16 -51 -22 -91 -22 -76
0 -118 28 -140 94 l-16 49 -11 -29 c-6 -16 -11 -22 -11 -12 -1 9 3 28 9 43 9
23 8 25 -9 15 -28 -15 -87 -99 -110 -158 -21 -54 -19 -63 9 -37 9 8 -4 -25
-29 -74 -25 -49 -47 -88 -49 -87 -1 2 9 52 23 111 14 60 24 110 22 112 -8 7
-56 -113 -81 -199 -31 -107 -47 -262 -37 -343 5 -33 9 -49 10 -35 3 48 15 55
53 32 82 -51 168 -167 205 -277 l13 -40 -3 53 c-3 39 -1 52 9 52 25 0 116 -39
157 -67 38 -26 117 -132 117 -157 0 -5 -23 12 -51 39 -51 49 -55 47 -17 -7 18
-26 61 -138 55 -144 -2 -2 -38 8 -80 21 -43 14 -102 28 -132 31 l-55 7 47 23
c27 13 39 22 28 19 -91 -20 -114 -25 -138 -25 -77 0 -143 67 -178 182 -12 37
-23 68 -26 68 -7 0 6 -76 28 -159 11 -40 18 -75 17 -76 -16 -13 -52 -25 -76
-25 -39 0 -76 43 -97 112 -16 54 -20 256 -6 353 l6 50 12 -80 c7 -44 19 -100
26 -125 13 -42 14 -37 9 90 -5 160 12 345 54 560 9 48 -48 -96 -106 -270 -66
-194 -75 -190 -40 16 23 137 45 204 106 326 24 48 44 91 44 95 0 4 -14 -6 -31
-23 l-31 -29 7 45 c4 25 10 50 14 56 9 17 188 154 193 148 8 -7 139 114 165
151 22 32 53 47 53 26 0 -4 -47 -50 -105 -101 -58 -52 -105 -95 -105 -97 0 -6
121 88 170 132 25 23 76 56 115 75 l69 35 -34 6 c-33 6 -32 6 12 8 37 1 52 -4
68 -21z m3485 13 l-30 -7 50 -22 c74 -33 84 -40 196 -131 l104 -84 -105 101
c-58 56 -99 101 -93 101 7 1 53 -39 102 -89 49 -49 95 -90 102 -90 21 0 201
-143 210 -168 5 -13 9 -38 9 -55 l-1 -32 -24 28 c-37 41 -38 33 -6 -32 67
-131 100 -229 120 -347 40 -241 37 -244 -33 -39 -62 181 -123 338 -111 285 37
-166 49 -286 50 -487 0 -116 3 -206 7 -198 12 21 38 152 39 198 l1 42 8 -34
c16 -67 22 -245 10 -316 -22 -134 -60 -185 -132 -171 -57 11 -59 15 -38 83 10
33 21 89 25 124 l5 64 -15 -52 c-32 -113 -91 -194 -152 -209 -22 -6 -130 7
-179 21 -11 3 3 -5 29 -19 l48 -24 -57 -7 c-31 -4 -89 -17 -128 -30 -39 -13
-73 -21 -75 -19 -9 8 24 97 51 140 16 26 27 48 25 50 -2 3 -25 -18 -50 -45
-26 -28 -47 -47 -47 -43 0 4 13 30 30 58 38 67 109 128 176 154 82 30 86 29
79 -32 l-6 -53 24 61 c28 73 60 126 106 177 37 41 112 97 130 97 6 0 11 -17
12 -37 l1 -38 10 35 c15 53 2 222 -25 331 -23 89 -85 254 -93 247 -2 -2 10
-59 25 -126 16 -67 27 -122 25 -122 -5 0 -94 177 -94 186 0 4 10 -1 21 -12 22
-19 22 -19 14 6 -15 50 -67 138 -102 171 l-35 34 6 -40 c3 -22 3 -32 0 -22 -8
24 -24 21 -24 -4 0 -32 -30 -76 -65 -95 -41 -22 -138 -16 -179 11 -24 16 -26
21 -13 23 26 5 9 22 -22 22 -56 0 -85 68 -57 134 14 33 14 37 1 26 -12 -10
-15 -10 -15 1 -1 9 -4 8 -11 -4 -6 -10 -11 -41 -11 -68 1 -55 -6 -59 -63 -35
l-35 15 5 62 c5 74 -14 69 -22 -5 -3 -25 -9 -43 -14 -40 -15 9 -10 78 7 102
15 22 20 23 99 16 76 -6 86 -5 111 15 25 19 25 21 6 21 -27 0 -38 51 -24 104
15 52 5 44 -25 -20 -24 -54 -26 -55 -44 -38 -15 13 -19 14 -15 3 18 -57 17
-69 -8 -69 -44 0 -56 10 -56 47 0 30 11 46 72 109 65 68 99 93 83 62 -4 -7 5
2 20 20 23 27 33 32 68 31 39 -1 40 -2 12 -8z m-3625 -35 c0 -2 -8 -10 -17
-17 -16 -13 -17 -12 -4 4 13 16 21 21 21 13z m-483 -324 c-10 -10 -17 -25 -18
-33 0 -11 -2 -11 -6 -1 -5 12 23 52 35 52 3 0 -2 -8 -11 -18z m4692 -50 c0
-11 -4 -9 -10 8 -6 13 -15 32 -22 40 -7 9 -2 5 11 -8 12 -13 22 -31 21 -40z
m-2228 -68 c39 -12 66 -28 97 -60 23 -24 42 -49 42 -56 0 -6 -10 1 -21 16 -12
15 -23 25 -25 23 -2 -2 5 -27 16 -55 32 -83 24 -215 -14 -267 -14 -19 -15 -19
-35 -1 -27 25 -27 20 8 -50 16 -32 32 -77 36 -99 l6 -40 -27 43 c-14 24 -28
41 -30 39 -7 -7 33 -112 72 -187 21 -41 41 -79 43 -85 2 -5 -22 13 -55 40 -46
39 -54 43 -37 20 36 -51 114 -120 198 -175 103 -68 188 -133 248 -189 56 -53
61 -45 10 18 -21 25 -31 41 -23 35 113 -83 140 -119 140 -188 0 -51 -23 -104
-66 -156 l-28 -32 -24 48 c-37 74 -116 168 -184 219 -33 25 -63 43 -65 41 -3
-3 4 -18 16 -34 33 -46 25 -48 -21 -5 -43 39 -131 103 -143 103 -3 0 24 -28
60 -62 36 -33 93 -97 127 -142 l61 -81 -6 40 c-3 22 -9 51 -12 65 -10 38 64
-79 75 -120 16 -56 12 -122 -9 -156 -27 -44 -98 -76 -179 -79 -37 -2 -55 -1
-39 1 45 9 31 21 -31 26 -125 12 -222 81 -222 160 l0 41 44 -41 c72 -66 93
-71 43 -9 -61 75 -84 136 -69 185 7 21 22 48 35 61 l24 22 56 -55 c49 -47 137
-116 150 -116 2 0 -30 35 -72 78 -87 89 -139 178 -148 253 l-6 52 53 -42 c46
-36 120 -81 133 -81 3 0 -34 37 -80 83 -94 91 -119 135 -208 365 l-48 124 -57
-144 c-88 -220 -111 -261 -204 -351 l-81 -80 53 27 c29 15 71 43 94 64 l41 37
-6 -57 c-8 -78 -46 -145 -142 -247 -94 -100 -59 -88 59 21 40 36 77 63 83 60
21 -14 53 -78 53 -107 -1 -44 -33 -107 -82 -161 -40 -44 -41 -46 -13 -31 17 8
46 31 64 51 42 43 51 45 51 9 0 -32 -31 -87 -63 -114 -29 -25 -139 -59 -188
-59 -47 0 -52 -17 -6 -23 17 -3 3 -4 -33 -3 -76 2 -152 35 -184 79 -42 58 -18
191 49 272 16 19 16 19 10 -9 -14 -65 -18 -91 -12 -86 3 3 27 34 53 70 26 35
81 98 123 139 68 68 72 73 34 51 -23 -12 -67 -47 -97 -77 -61 -59 -71 -59 -31
0 33 47 19 47 -42 -1 -70 -56 -148 -144 -187 -214 l-34 -61 -32 44 c-60 82
-75 151 -46 207 13 25 60 72 115 117 l25 20 -25 -34 c-13 -18 -31 -43 -39 -54
-8 -12 21 9 64 46 44 37 127 100 185 139 100 67 251 201 251 222 0 6 -17 -6
-37 -25 -72 -67 -77 -66 -39 3 35 62 101 228 91 228 -2 0 -16 -20 -31 -45 -14
-25 -28 -44 -31 -41 -8 8 19 91 48 145 28 52 28 54 5 32 l-25 -23 -22 43 c-34
68 -37 157 -6 249 l25 74 -30 -34 -29 -35 22 36 c27 44 72 76 131 94 60 19
193 18 259 -1z m1866 -206 c-3 -8 -6 -5 -6 6 -1 11 2 17 5 13 3 -3 4 -12 1
-19z m-4001 -24 c-5 -19 0 -35 19 -60 29 -38 64 -111 65 -134 0 -8 -12 10 -26
40 -14 30 -37 70 -50 88 -20 25 -24 39 -19 62 4 17 9 30 12 30 3 0 2 -12 -1
-26z m3995 -68 c-31 -32 -54 -79 -77 -156 l-14 -45 6 40 c7 50 50 148 75 171
11 9 19 29 20 43 l0 26 10 -24 c8 -21 5 -29 -20 -55z m510 -156 c47 -143 58
-237 39 -332 -24 -126 -35 -119 -36 25 -1 138 -17 252 -59 418 -14 54 -25 101
-25 106 1 14 38 -86 81 -217z m-4950 124 c-47 -189 -55 -247 -55 -410 -1 -89
-4 -160 -7 -158 -3 2 -15 29 -25 61 -13 41 -19 86 -18 153 0 89 4 106 59 268
32 95 60 170 62 168 2 -2 -5 -39 -16 -82z m332 -49 c-19 -46 -37 -107 -40
-135 -6 -55 -10 -57 -53 -35 l-28 15 15 57 c8 32 24 73 35 90 18 31 85 93 99
93 3 0 -9 -38 -28 -85z m4251 45 c66 -61 118 -201 79 -213 -10 -2 -26 -8 -35
-12 -14 -5 -18 1 -23 32 -9 54 -34 130 -61 186 -12 26 -18 47 -13 47 5 0 29
-18 53 -40z m-4760 -116 c-110 -249 -100 -462 32 -648 l37 -51 -32 30 c-126
117 -171 301 -121 482 19 70 93 243 104 243 3 0 -6 -25 -20 -56z m5295 -76
c50 -124 64 -192 59 -289 -4 -76 -9 -97 -41 -161 -20 -40 -55 -93 -78 -118
-22 -25 -34 -34 -25 -20 47 75 70 123 93 190 23 67 25 86 20 180 -4 99 -19
160 -72 295 -6 14 -5 17 3 10 6 -5 25 -44 41 -87z m-4582 60 c-3 -8 -6 -5 -6
6 -1 11 2 17 5 13 3 -3 4 -12 1 -19z m-117 -75 c11 -36 20 -93 20 -126 l0 -61
-29 46 c-16 26 -43 56 -60 69 -41 30 -39 62 7 137 21 32 37 14 62 -65z m4126
44 c37 -70 36 -81 -13 -128 -24 -24 -53 -60 -63 -79 l-19 -35 -1 46 c0 63 16
141 40 196 21 48 31 49 56 0z m-2380 -69 c-13 -29 -29 -77 -37 -106 -7 -29
-19 -58 -26 -64 -14 -11 37 143 63 195 24 46 24 30 0 -25z m-1289 11 c51 -25
96 -76 112 -128 18 -60 13 -82 -9 -40 -20 38 -102 119 -121 119 -7 0 0 -11 14
-24 34 -32 56 -77 63 -130 10 -69 -3 -107 -50 -148 l-43 -38 -44 41 c-55 50
-127 92 -201 115 -32 10 -58 23 -58 30 0 23 66 109 108 141 49 37 38 42 -25
13 -54 -24 -55 -18 -3 16 86 57 182 70 257 33z m3357 -10 c25 -12 54 -31 63
-41 16 -17 14 -17 -28 1 -65 30 -79 25 -27 -9 47 -31 93 -90 104 -134 5 -22 2
-26 -37 -36 -69 -19 -158 -68 -209 -116 l-48 -45 -48 45 c-47 46 -48 47 -48
109 1 67 18 112 63 161 l26 28 -30 -15 c-38 -19 -66 -49 -100 -107 l-27 -45 7
45 c9 70 51 129 115 163 48 25 63 28 116 24 36 -3 81 -14 108 -28z m-2704
-155 c58 -28 176 -112 168 -120 -2 -1 -30 11 -63 27 -33 16 -85 36 -115 44
-75 20 -209 29 -240 17 -22 -9 -18 -11 28 -11 172 -2 310 -81 341 -195 9 -33
6 -96 -5 -96 -2 0 -42 29 -88 64 -147 112 -255 161 -382 174 l-66 7 38 39 c20
21 60 49 88 63 45 21 62 24 141 21 75 -3 100 -9 155 -34z m2114 20 c30 -10 67
-35 95 -62 l46 -46 -70 -8 c-38 -5 -86 -13 -105 -19 -64 -20 -199 -97 -279
-158 -43 -34 -81 -61 -86 -61 -4 0 -5 27 -3 60 3 46 11 69 35 102 53 73 180
127 303 129 47 0 52 2 30 11 -66 27 -293 -20 -385 -79 l-40 -26 35 37 c45 48
120 96 184 118 65 22 177 23 240 2z m-1154 -124 c44 -115 46 -123 13 -65 l-27
50 -8 -96 c-4 -53 -11 -121 -16 -150 -7 -50 -9 -42 -22 100 l-13 154 -28 -59
c-29 -62 -39 -70 -15 -13 7 19 26 67 41 107 15 41 31 70 35 65 4 -4 22 -46 40
-93z m-620 -1 c-78 -42 -83 -52 -17 -29 32 11 84 24 117 29 60 8 60 7 46 -13
-7 -12 -45 -43 -83 -70 l-70 -48 -49 52 c-27 29 -50 56 -52 60 -4 10 111 49
143 49 12 0 -2 -12 -35 -30z m1194 11 c36 -12 66 -24 66 -28 -1 -4 -23 -31
-49 -61 l-48 -54 -59 41 c-33 22 -72 53 -87 69 l-28 30 61 -8 c33 -5 84 -17
114 -27 68 -23 63 -11 -12 28 -67 34 -50 38 42 10z m-1798 -55 c64 -19 156
-78 216 -140 26 -27 46 -50 45 -52 -2 -1 -37 11 -78 26 -40 16 -103 35 -139
42 -74 14 -271 17 -342 5 -42 -6 -48 -5 -48 10 0 25 83 102 122 113 51 14 169
13 224 -4z m2630 -21 c39 -24 91 -90 80 -101 -1 -2 -47 2 -102 7 -162 17 -355
-10 -465 -65 -43 -22 -49 -23 -40 -8 5 11 31 39 58 64 112 105 200 141 335
136 75 -3 92 -7 134 -33z m-3944 -109 c14 -16 28 -42 31 -56 10 -38 48 -91 86
-116 l34 -23 -37 0 c-40 0 -88 18 -124 48 -27 21 -48 96 -57 207 l-6 70 24
-50 c13 -27 35 -63 49 -80z m5044 -37 c-9 -44 -23 -90 -33 -101 -25 -28 -92
-57 -133 -57 l-35 0 33 21 c32 21 73 81 87 129 4 14 20 39 35 57 16 17 34 49
42 69 l13 38 3 -37 c2 -21 -4 -74 -12 -119z m-5009 80 c-3 -8 -6 -5 -6 6 -1
11 2 17 5 13 3 -3 4 -12 1 -19z m47 -116 c21 -41 62 -69 127 -86 l54 -15 -49
0 c-67 -1 -108 26 -140 92 -14 29 -28 66 -31 82 -5 27 -4 26 9 -6 8 -20 21
-50 30 -67z m4856 41 c-31 -96 -84 -144 -160 -142 l-45 1 45 12 c25 7 55 18
66 24 34 18 72 69 85 113 7 21 14 37 17 35 2 -3 -2 -22 -8 -43z m-3554 7 c71
-24 131 -71 150 -116 25 -61 22 -64 -53 -42 -48 14 -107 21 -198 23 -126 4
-128 4 -45 -6 104 -11 224 -43 260 -69 27 -19 50 -76 50 -124 0 -40 -31 -63
-94 -71 -104 -13 -253 32 -411 126 l-50 30 48 -44 c97 -89 242 -155 382 -173
l60 -8 -40 -7 c-101 -19 -225 -8 -328 31 -115 43 -220 175 -221 279 -2 85 67
155 183 188 66 19 230 10 307 -17z m2582 -5 c66 -29 117 -78 128 -121 25 -99
-64 -247 -185 -308 -95 -49 -241 -68 -355 -48 -37 7 -34 8 55 25 119 22 252
85 329 156 l55 51 -81 -48 c-141 -84 -311 -127 -400 -103 -51 14 -66 31 -66
75 0 64 20 105 63 126 47 24 146 48 248 60 67 8 60 8 -54 5 -91 -2 -150 -9
-197 -23 -77 -22 -85 -15 -49 44 55 90 194 145 351 140 79 -2 106 -8 158 -31z
m1185 -177 c-22 -24 -77 -53 -118 -62 -21 -4 -15 1 21 19 72 35 93 62 102 126
l7 54 3 -59 c2 -45 -1 -63 -15 -78z m-5314 59 c1 -36 37 -71 104 -102 60 -28
52 -32 -16 -9 -26 9 -60 28 -77 44 -26 25 -30 34 -29 82 0 39 3 48 9 33 5 -11
9 -33 9 -48z m759 -32 c37 -9 96 -30 132 -48 62 -31 65 -35 88 -95 15 -40 42
-82 74 -118 28 -30 49 -56 47 -58 -6 -6 -111 -36 -123 -36 -6 1 2 8 17 16 16
9 27 17 25 19 -1 1 -43 -6 -93 -16 -49 -10 -112 -19 -139 -19 -47 0 -53 3
-100 53 -49 50 -124 173 -113 184 3 2 46 5 95 6 102 2 105 10 19 47 -70 31
-144 50 -191 50 -95 0 26 27 132 29 35 0 93 -6 130 -14z m4041 3 l66 -12 -60
-6 c-33 -4 -78 -13 -100 -20 -37 -12 -155 -67 -155 -73 0 -1 41 -3 91 -4 50
-1 93 -3 95 -6 9 -9 -24 -77 -67 -138 -73 -104 -114 -115 -284 -79 -49 10 -91
17 -93 15 -2 -2 9 -10 25 -19 15 -8 25 -15 20 -16 -16 0 -127 34 -127 40 0 3
19 24 41 45 38 37 99 143 99 173 0 16 125 76 200 96 68 18 163 20 249 4z
m-4531 -78 c29 -11 87 -26 129 -33 l76 -13 17 -51 c9 -28 24 -64 34 -80 14
-23 12 -22 -14 7 -17 19 -35 49 -42 66 -10 28 -19 33 -102 58 -50 15 -107 36
-126 46 -46 25 -37 25 28 0z m4828 11 c-6 -10 -127 -54 -193 -71 -35 -9 -45
-17 -62 -53 -11 -23 -34 -58 -51 -77 -29 -32 -30 -32 -11 -4 21 32 48 97 53
128 2 16 17 22 80 33 42 7 101 21 130 32 29 11 54 20 56 20 2 1 1 -3 -2 -8z
m-3256 -222 c30 -44 72 -89 82 -89 4 0 8 12 8 27 0 24 2 23 31 -20 35 -53 85
-98 144 -128 33 -17 35 -20 12 -15 -43 10 -102 51 -138 96 -36 44 -45 46 -29
6 l10 -27 -29 20 c-66 47 -139 162 -156 246 -4 17 4 5 18 -26 13 -31 34 -71
47 -90z m1690 84 c-22 -67 -51 -115 -103 -170 -56 -60 -70 -65 -62 -25 6 26 6
26 -10 7 -39 -49 -57 -66 -92 -89 -21 -13 -49 -27 -63 -31 -15 -4 -7 4 20 20
60 35 117 91 143 140 l21 40 6 -34 5 -35 41 47 c22 25 54 75 70 110 32 71 43
80 24 20z m-3082 -119 c49 -24 64 -37 79 -69 10 -22 33 -57 52 -77 38 -43 34
-47 -18 -17 -35 21 -35 21 9 -20 25 -22 83 -60 129 -83 80 -41 89 -43 165 -42
45 1 108 7 140 13 33 6 61 9 63 7 12 -11 -124 -31 -212 -31 -93 0 -105 2 -165
32 -118 58 -267 196 -359 332 -63 93 -63 101 -1 41 32 -32 85 -70 118 -86z
m4586 124 c-72 -123 -166 -233 -272 -318 -117 -94 -177 -122 -276 -128 -69 -4
-255 22 -243 34 2 2 50 -3 107 -12 149 -22 227 -4 345 81 75 53 108 90 47 51
l-43 -27 39 49 c21 27 44 64 52 81 9 24 29 40 71 61 32 16 84 54 116 84 61 58
69 64 57 44z m-2359 -108 c14 -28 14 -35 -4 -93 -11 -34 -20 -52 -20 -41 -1
12 -8 40 -16 63 -13 37 -12 44 3 71 9 16 18 30 19 30 1 0 9 -14 18 -30z m-916
-47 c-69 -92 -135 -127 -239 -127 -50 -1 -92 6 -125 18 -95 36 -91 42 24 38
123 -5 204 11 291 57 67 35 65 35 49 14z m1862 -23 c87 -41 155 -53 282 -48
l110 3 -51 -23 c-120 -54 -231 -52 -324 7 -38 24 -100 91 -85 91 3 0 33 -13
68 -30z m-2451 -27 c21 -36 21 -38 3 -51 -61 -47 -210 -96 -323 -107 l-65 -6
70 24 c96 32 182 79 241 132 27 24 50 44 51 45 0 0 11 -17 23 -37z m3147 -79
c32 -19 92 -46 133 -59 86 -27 61 -33 -52 -11 -86 17 -175 49 -235 85 l-42 25
21 38 21 37 48 -40 c26 -22 74 -55 106 -75z m-1354 10 c29 -8 86 -14 127 -15
95 -1 57 -17 -45 -18 -61 -1 -80 4 -140 33 -89 43 -130 75 -52 40 32 -15 82
-32 110 -40z m-467 48 c-3 -5 -35 -24 -71 -42 -72 -37 -143 -48 -222 -34 -46
8 -44 8 47 15 71 5 114 14 170 37 41 16 76 30 78 31 2 1 1 -3 -2 -7z m-529
-48 c3 -10 -70 -58 -106 -69 -17 -5 -8 6 30 38 52 44 69 51 76 31z m593 -23
c-5 -18 -21 -49 -36 -70 -25 -35 -25 -35 15 6 50 52 54 42 6 -15 -24 -27 -53
-47 -91 -61 -78 -30 -97 -26 -39 8 28 16 63 43 80 61 l30 31 -65 -30 c-67 -31
-149 -52 -204 -50 -20 0 -5 6 39 15 92 20 195 68 236 110 18 18 34 32 36 31 1
-2 -2 -18 -7 -36z m859 -6 c28 -21 49 -41 47 -43 -5 -5 -87 37 -108 56 -17 14
-15 36 3 30 5 -2 31 -21 58 -43z m-554 -47 c43 -22 128 -48 183 -58 42 -7 43
-8 12 -9 -56 -1 -168 26 -216 53 -24 14 -44 21 -44 16 0 -10 60 -59 110 -89
41 -25 31 -26 -34 -7 -58 18 -105 53 -129 97 l-19 34 37 -40 36 -40 -25 46
c-40 71 -35 87 17 46 23 -19 56 -41 72 -49z m795 -14 c43 -12 102 -18 172 -18
115 -1 113 -13 -4 -23 -90 -8 -177 10 -273 57 -113 56 -152 90 -45 41 47 -22
114 -47 150 -57z m-1810 66 c-89 -69 -243 -115 -360 -107 -124 9 -131 22 -12
22 121 1 195 17 312 69 90 40 92 41 60 16z m1451 -75 c-51 -185 -169 -337
-323 -416 -53 -27 -61 -23 -11 5 139 80 264 249 304 411 11 46 37 91 46 81 3
-2 -5 -39 -16 -81z m-1261 6 c43 -156 153 -315 275 -397 27 -19 45 -34 40 -34
-18 0 -119 71 -168 119 -26 25 -66 74 -89 108 -41 64 -98 209 -98 251 0 44 23
17 40 -47z m-933 -37 c-3 -3 -12 -4 -19 -1 -8 3 -5 6 6 6 11 1 17 -2 13 -5z
m1521 -134 c0 -47 -3 -105 -7 -130 -7 -35 -9 -18 -10 76 0 66 -4 124 -8 127
-4 4 -18 -3 -32 -17 -14 -13 -39 -32 -56 -42 -23 -13 -20 -9 12 19 23 21 52
54 65 75 l23 37 6 -30 c4 -16 7 -68 7 -115z m-918 100 c0 -17 6 -45 13 -63 16
-38 86 -103 131 -123 17 -7 24 -13 16 -14 -26 0 -134 56 -158 83 -13 14 -30
42 -37 64 -13 37 -15 38 -67 43 l-53 6 40 8 c22 4 51 11 65 16 43 14 50 12 50
-20z m1050 -35 c42 -45 48 -55 25 -41 -16 10 -40 27 -51 38 -21 19 -21 19 -28
-13 -3 -17 -7 -70 -7 -118 l-2 -86 -9 80 c-10 77 -3 209 10 203 4 -2 32 -30
62 -63z m952 40 l53 -13 -56 -1 -56 -1 -11 -39 c-19 -61 -95 -122 -182 -145
-22 -6 -21 -5 5 10 74 40 144 134 145 192 0 19 4 21 25 16 13 -3 48 -12 77
-19z m-2389 -117 c102 -78 273 -134 447 -146 l105 -7 -75 -7 c-139 -12 -296 9
-383 53 l-39 20 19 -32 c30 -55 149 -174 200 -201 87 -47 157 -62 288 -62 66
0 107 -3 90 -7 -68 -15 -232 -9 -296 11 -129 39 -241 127 -324 251 -41 61 -90
159 -80 159 3 0 24 -15 48 -32z m2687 -39 c-90 -180 -228 -301 -395 -345 -56
-15 -209 -17 -270 -4 -30 7 -22 8 35 3 161 -11 318 34 418 122 38 33 132 153
132 169 0 4 -14 -1 -31 -10 -91 -47 -239 -69 -379 -56 l-85 8 105 7 c174 12
334 61 440 136 30 21 56 37 58 36 2 -2 -11 -32 -28 -66z m-1729 -297 c-11 -21
-37 -54 -57 -72 -37 -32 -102 -65 -111 -56 -2 2 5 7 16 11 23 7 125 85 119 90
-2 2 -26 -7 -54 -20 -59 -28 -124 -45 -174 -44 -28 0 -20 4 35 18 88 22 152
53 202 96 45 39 52 32 24 -23z m770 27 c44 -41 116 -77 203 -99 56 -15 64 -19
36 -19 -46 -1 -124 20 -180 49 l-45 22 25 -27 c14 -15 45 -41 70 -57 29 -19
36 -27 20 -23 -41 13 -97 52 -123 87 -22 29 -51 98 -43 98 2 0 19 -14 37 -31z
m-55 -241 c59 -31 78 -45 66 -49 -30 -11 99 -32 165 -26 80 6 155 42 230 110
46 41 53 45 35 20 -86 -122 -218 -186 -339 -164 -60 11 -198 75 -243 111 l-25
21 40 -16 c69 -29 72 -28 17 4 -29 18 -83 61 -120 97 l-67 65 79 -64 c44 -36
116 -85 162 -109z m-497 109 c-31 -29 -85 -69 -120 -89 -71 -43 -72 -47 -5
-18 25 10 46 17 46 15 0 -12 -117 -79 -178 -102 -159 -60 -299 -16 -414 130
l-33 42 60 -51 c117 -100 231 -133 356 -104 64 15 101 33 49 23 -29 -5 -23 1
35 32 84 45 139 82 200 135 67 58 70 48 4 -13z m180 -272 c-14 -217 -22 -213
-38 20 -8 118 -8 170 0 200 17 61 21 62 36 14 11 -37 12 -76 2 -234z m-138
248 c-16 -29 -90 -102 -132 -130 -46 -30 -46 -38 0 -22 18 6 33 10 35 8 2 -2
13 -44 25 -94 12 -49 38 -130 57 -178 20 -49 34 -90 32 -92 -11 -11 -112 50
-166 100 -77 71 -104 112 -46 69 36 -26 35 -24 -13 28 -61 65 -67 79 -20 46
30 -21 29 -19 -11 27 l-43 49 57 28 c70 35 136 83 189 137 43 45 51 50 36 24z
m351 -97 c20 -15 65 -43 99 -61 l62 -33 -44 -48 -44 -48 40 24 40 23 -25 -29
c-13 -16 -42 -46 -65 -68 -39 -37 -23 -32 23 8 12 11 22 16 22 12 0 -20 -67
-90 -124 -130 -66 -46 -132 -75 -123 -53 35 77 71 183 91 259 24 98 24 97 81
83 29 -7 28 -6 -10 20 -52 35 -90 71 -128 120 l-30 40 49 -46 c27 -25 66 -58
86 -73z m387 -143 c0 -25 -1 -26 -9 -8 -12 27 -12 35 0 35 6 0 10 -12 9 -27z
m-1131 -27 c6 -24 27 -64 47 -90 19 -25 31 -46 25 -46 -29 0 -140 132 -140
167 0 8 12 13 28 13 24 0 29 -5 40 -44z m1082 18 c-18 -46 -69 -112 -104 -133
-49 -30 -52 -26 -13 19 18 22 40 59 47 82 19 59 18 58 50 58 28 0 29 -2 20
-26z m-1122 -184 c33 -22 66 -48 73 -58 13 -16 12 -16 -6 -1 -11 9 -49 35 -84
58 -35 23 -59 41 -54 41 6 0 38 -18 71 -40z m-19 -13 c82 -48 193 -162 229
-232 43 -86 84 -208 127 -378 37 -144 38 -148 19 -162 -36 -26 -121 -46 -203
-47 -44 0 -81 -2 -81 -4 0 -9 89 -25 173 -32 l92 -8 -69 -12 c-106 -20 -198 4
-245 64 -28 36 -27 41 12 48 46 9 146 58 186 92 36 30 91 101 91 116 0 5 -16
0 -36 -13 -20 -12 -68 -35 -108 -50 -81 -32 -68 -39 19 -9 32 11 60 20 63 20
10 0 -46 -39 -85 -59 -43 -21 -133 -40 -133 -27 0 4 15 37 34 74 56 112 86
198 86 244 0 43 -24 106 -54 143 -15 19 -16 19 -6 -8 16 -46 13 -66 -7 -37 -9
14 -36 46 -60 73 -46 50 -82 117 -83 154 0 12 -5 25 -11 29 -9 5 -10 -9 -7
-50 3 -41 2 -54 -6 -46 -6 6 -11 40 -11 75 0 36 -3 65 -7 65 -3 0 -23 -19 -44
-42 -28 -32 -33 -35 -19 -13 29 50 58 76 75 70 8 -3 39 -20 69 -38z m1242 16
c47 -52 53 -68 12 -29 l-42 39 2 -54 c0 -30 -4 -63 -11 -74 -10 -17 -12 -11
-12 40 l-1 60 -18 -61 c-10 -34 -26 -73 -37 -86 -28 -37 -124 -150 -124 -146
0 2 4 18 9 36 13 43 -3 33 -31 -21 -16 -30 -22 -60 -22 -102 0 -53 7 -75 62
-189 l62 -129 -48 7 c-50 7 -142 47 -161 70 -9 11 3 9 49 -5 89 -28 96 -23 15
10 -38 16 -88 39 -110 52 l-40 24 26 -45 c37 -63 132 -133 219 -161 71 -23 79
-32 57 -59 -51 -64 -140 -88 -250 -69 l-72 13 92 8 c85 7 173 23 173 32 0 2
-33 4 -74 4 -88 1 -187 26 -224 57 -5 4 76 306 102 383 43 124 86 200 150 265
53 53 196 157 215 157 4 0 18 -12 32 -27z m-96 9 c-30 -26 -118 -83 -107 -69
14 16 101 77 111 77 3 0 1 -4 -4 -8z m-169 -31 c-10 -15 -152 -71 -233 -92
-92 -23 -259 -25 -349 -4 -70 16 -177 55 -171 61 3 3 22 -2 43 -10 97 -37 170
-50 294 -50 139 0 240 21 353 73 73 35 70 33 63 22z m-771 -29 c-3 -3 -11 0
-18 7 -9 10 -8 11 6 5 10 -3 15 -9 12 -12z m52 -87 c61 -31 142 -114 176 -181
27 -53 67 -176 66 -203 0 -9 -8 9 -18 39 -23 69 -54 139 -74 165 -15 19 -15
17 -7 -20 5 -22 9 -69 9 -105 l0 -65 -24 57 c-43 105 -117 236 -162 287 -50
57 -41 63 34 26z m655 -22 c-52 -63 -112 -169 -154 -268 l-33 -80 -3 47 c-2
26 1 71 7 100 5 29 8 55 6 56 -5 6 -44 -73 -71 -142 -28 -73 -32 -52 -5 25 46
136 124 239 213 283 75 38 85 33 40 -21z m-1122 -151 l0 -77 -57 -60 c-31 -33
-73 -87 -95 -119 -21 -33 -38 -57 -38 -55 0 25 49 168 76 223 32 66 98 166
109 166 3 0 5 -35 5 -78z m1603 25 c19 -30 49 -81 65 -113 32 -63 78 -202 69
-210 -2 -3 -17 16 -31 41 -15 25 -54 74 -87 110 -66 70 -76 100 -65 179 4 26
9 46 10 46 2 0 19 -24 39 -53z m-1812 -84 c-142 -153 -231 -316 -290 -527 -35
-124 -90 -399 -77 -385 2 2 16 36 31 74 43 109 117 252 180 345 31 47 55 81
53 75 -2 -5 -30 -63 -61 -128 -129 -266 -224 -643 -228 -900 -1 -54 -2 -58
-10 -32 -17 55 -47 249 -54 350 -19 269 110 695 287 952 46 67 218 253 234
253 3 0 -26 -35 -65 -77z m2016 -26 c176 -186 289 -408 374 -742 32 -122 34
-140 34 -295 0 -160 -7 -224 -43 -380 l-17 -75 -6 125 c-10 191 -51 399 -116
590 -33 99 -108 272 -145 338 -44 77 -27 63 30 -25 56 -88 129 -230 179 -348
l34 -80 -6 55 c-12 98 -56 291 -91 399 -62 190 -149 337 -277 470 -34 35 -53
59 -41 53 11 -6 52 -44 91 -85z m-1232 -102 c36 -107 76 -270 74 -307 0 -13
-10 15 -20 62 -26 110 -75 278 -105 359 -13 35 -24 66 -23 70 1 13 42 -88 74
-184z m456 119 c-27 -71 -77 -243 -105 -364 -14 -58 -25 -94 -25 -80 -1 30 42
224 65 295 29 88 76 207 80 202 3 -2 -4 -26 -15 -53z m-921 -209 c-5 -38 -16
-103 -25 -143 -8 -40 -15 -89 -15 -109 0 -27 -9 -46 -40 -80 -78 -89 -187
-260 -293 -458 -64 -121 -66 -109 -5 30 51 116 114 233 200 370 l69 110 -66
-65 c-74 -72 -161 -175 -224 -264 -47 -67 -48 -63 -22 49 68 281 206 530 361
652 l55 43 7 -32 c4 -18 3 -64 -2 -103z m1448 38 c155 -157 255 -366 327 -688
5 -22 -8 -9 -51 50 -88 123 -274 336 -274 313 0 -3 29 -52 65 -109 78 -124
181 -323 230 -444 19 -48 35 -90 35 -94 0 -3 -35 62 -78 144 -90 174 -181 318
-269 427 -56 69 -63 82 -63 121 0 25 -9 89 -20 142 -25 122 -27 225 -4 225 9
0 55 -39 102 -87z m-711 15 c-3 -8 -6 -5 -6 6 -1 11 2 17 5 13 3 -3 4 -12 1
-19z m-130 -30 c-3 -8 -6 -5 -6 6 -1 11 2 17 5 13 3 -3 4 -12 1 -19z m-60
-305 c-3 -10 -5 -4 -5 12 0 17 2 24 5 18 2 -7 2 -21 0 -30z m240 -20 c-3 -10
-5 -4 -5 12 0 17 2 24 5 18 2 -7 2 -21 0 -30z m-325 -59 c-45 -31 -133 -54
-206 -52 l-71 1 77 6 c43 4 80 10 83 13 3 3 -20 8 -52 12 -113 13 -121 23 -13
19 58 -3 123 0 145 5 57 14 62 14 37 -4z m558 1 c52 0 111 3 130 7 26 6 30 5
18 -3 -10 -5 -57 -16 -105 -23 -76 -11 -83 -14 -53 -20 19 -3 58 -8 85 -10 28
-2 12 -3 -35 -2 -73 2 -94 6 -150 34 -60 29 -62 31 -25 24 22 -4 83 -7 135 -7z
m-975 -149 c56 -69 56 -65 -9 -227 -48 -119 -113 -239 -180 -329 -47 -65 -135
-160 -147 -160 -14 0 -10 82 6 162 13 61 35 131 80 253 5 16 3 15 -14 -5 -24
-28 -102 -176 -138 -260 -19 -44 -22 -48 -17 -20 19 108 78 241 167 375 46 69
200 276 202 272 1 -1 24 -28 50 -61z m1367 -33 c153 -200 236 -343 277 -477
31 -100 25 -112 -13 -26 -45 102 -79 166 -117 220 -33 47 -32 45 8 -59 37 -97
63 -218 62 -291 l0 -65 -61 65 c-118 126 -240 338 -304 527 l-27 82 47 51 c25
29 46 56 46 61 0 17 8 8 82 -88z m-1248 21 c48 -22 68 -26 110 -21 28 3 60 8
71 12 11 3 7 -1 -8 -10 -15 -9 -50 -19 -77 -22 -58 -7 -120 19 -166 69 -16 18
-20 25 -9 16 11 -9 47 -29 79 -44z m1065 16 c-36 -32 -100 -60 -136 -60 -31 0
-148 38 -141 46 2 2 26 -4 53 -12 69 -21 134 -14 192 23 53 33 69 35 32 3z
m65 -384 c25 -50 59 -116 76 -146 l32 -55 -52 55 c-108 114 -168 211 -215 345
l-24 70 32 11 32 11 37 -100 c21 -55 58 -141 82 -191z m-1076 270 c7 -8 -30
-109 -69 -187 -37 -75 -126 -195 -189 -254 -29 -28 -28 -24 18 55 55 96 117
231 153 333 23 67 25 68 53 63 16 -4 31 -8 34 -10z m509 -18 c-3 -8 -6 -5 -6
6 -1 11 2 17 5 13 3 -3 4 -12 1 -19z m-120 -10 c-3 -8 -6 -5 -6 6 -1 11 2 17
5 13 3 -3 4 -12 1 -19z m248 -308 c41 -82 128 -180 235 -263 112 -88 94 -82
-40 11 -155 109 -213 196 -284 421 -48 153 -45 162 8 21 24 -63 60 -149 81
-190z m-291 159 c-66 -204 -119 -288 -243 -383 -56 -43 -155 -107 -136 -88 6
5 51 44 102 86 51 42 110 100 132 129 45 59 103 180 147 304 42 121 41 84 -2
-48z m598 -222 c33 -48 101 -131 152 -184 84 -90 87 -94 41 -63 -121 83 -261
262 -324 415 -49 119 -45 124 14 20 32 -55 84 -139 117 -188z m-836 225 c-22
-63 -81 -176 -128 -245 -48 -72 -189 -214 -239 -240 l-34 -18 33 27 c85 70
253 295 338 454 21 38 39 68 41 66 2 -1 -3 -21 -11 -44z"/>
<path d="M989 5173 c-35 -30 -68 -94 -69 -133 0 -18 8 -9 29 35 15 33 42 75
59 93 37 39 26 42 -19 5z"/>
<path d="M774 4960 c-24 -9 -84 -76 -84 -92 0 -7 17 4 38 23 20 20 50 45 66
57 29 22 19 28 -20 12z"/>
<path d="M4689 5165 c18 -21 44 -61 57 -89 16 -34 24 -44 24 -29 0 49 -45 118
-95 146 -13 7 -8 -3 14 -28z"/>
<path d="M4886 4961 c45 -42 107 -91 111 -87 9 9 -38 66 -67 81 -32 17 -60 20
-44 6z"/>
<path d="M2757 4477 c-24 -10 -11 -12 93 -12 104 0 117 2 93 12 -15 7 -57 12
-93 12 -36 0 -78 -5 -93 -12z"/>
<path d="M2453 4495 c-3 -9 -3 -19 1 -22 3 -4 6 1 6 10 0 8 8 18 18 20 16 4
16 5 -1 6 -10 0 -20 -6 -24 -14z"/>
</g>
</svg>
